<?xml version="1.0" encoding="UTF-8"?>
<!DOCTYPE svg PUBLIC "-//W3C//DTD SVG 1.1//EN" "http://www.w3.org/Graphics/SVG/1.1/DTD/svg11.dtd">
<!-- Creator: CorelDRAW 2020 (64-Bit) -->
<svg xmlns="http://www.w3.org/2000/svg" xml:space="preserve" width="4.511mm" height="4.512mm" version="1.1" style="shape-rendering:geometricPrecision; text-rendering:geometricPrecision; image-rendering:optimizeQuality; fill-rule:evenodd; clip-rule:evenodd"
viewBox="0 0 8.99 8.99"
 xmlns:xlink="http://www.w3.org/1999/xlink"
 xmlns:xodm="http://www.corel.com/coreldraw/odm/2003">
 <defs>
  <style type="text/css">
   <![CDATA[
    .fil0 {fill:#078743;fill-rule:nonzero}
   ]]>
  </style>
 </defs>
 <g id="Capa_x0020_1">
  <metadata id="CorelCorpID_0Corel-Layer"/>
  <g id="_2808192506112">
   <path class="fil0" d="M1.32 4.21c-0.15,0 -0.26,0.12 -0.26,0.26l0 0.53c0,0.15 0.12,0.26 0.26,0.26 0.15,0 0.26,-0.12 0.26,-0.26l0 -0.53c0,-0.15 -0.12,-0.26 -0.26,-0.26z"/>
   <path class="fil0" d="M2.37 4.21c0.15,0 0.26,-0.12 0.26,-0.26l0 -0.53c0,-0.15 -0.12,-0.26 -0.26,-0.26 -0.15,0 -0.26,0.12 -0.26,0.26l0 0.53c0,0.15 0.12,0.26 0.26,0.26z"/>
   <path class="fil0" d="M7.23 7.14c-0.53,0.54 -1.39,1 -2.24,1.21 -0.9,0.22 -1.64,0.12 -2.04,-0.27 -0.4,-0.4 -0.5,-1.14 -0.27,-2.04 0.21,-0.85 0.67,-1.71 1.21,-2.24 0.94,-0.94 1.75,-0.48 2.79,0.56 1.1,1.1 1.47,1.88 0.56,2.79zm1.75 -2.59l0 -0.03c-0,-0.06 -0.03,-0.12 -0.08,-0.17l-0.37 -0.37c-0.07,-0.07 -0.14,-0.13 -0.22,-0.18 0.33,-0.48 0.3,-1.11 0.3,-1.14 -0.01,-0.13 -0.11,-0.24 -0.25,-0.25 -0.03,-0 -0.66,-0.03 -1.14,0.3 -0.05,-0.08 -0.11,-0.16 -0.18,-0.22l-0.37 -0.37c-0.1,-0.1 -0.27,-0.1 -0.37,0 -0.26,0.26 -0.39,0.6 -0.38,0.94 -0.17,-0.1 -0.35,-0.18 -0.53,-0.23 -0.02,-0.01 -0.04,-0.01 -0.07,-0.02 -0.24,-0.25 -0.56,-0.42 -0.99,-0.54 0.25,-0.24 0.4,-0.57 0.4,-0.95 0,-0.15 -0.12,-0.26 -0.26,-0.26l-0.53 0c-0.1,0 -0.19,0.01 -0.28,0.03 -0.11,-0.58 -0.57,-1 -0.59,-1.02 -0.05,-0.04 -0.11,-0.07 -0.18,-0.07 -0.06,0 -0.13,0.02 -0.18,0.07 -0.02,0.02 -0.49,0.44 -0.59,1.02 -0.09,-0.02 -0.19,-0.03 -0.28,-0.03l-0.53 0c-0.15,0 -0.26,0.12 -0.26,0.26 0,0.37 0.15,0.7 0.39,0.93 -0.92,0.25 -1.44,0.86 -1.44,1.96 0,0.8 0.28,1.77 0.75,2.59 0.51,0.89 1.15,1.46 1.81,1.61 0.4,0.42 0.97,0.57 1.55,0.57 0.31,0 0.65,-0.04 1.01,-0.13 0.94,-0.23 1.89,-0.75 2.49,-1.34 0.77,-0.77 0.85,-1.58 0.37,-2.41 0,0 0,0 0.01,0 0.35,0 0.68,-0.14 0.93,-0.39 0.05,-0.05 0.07,-0.11 0.08,-0.17zm-7.78 1.99c-0.42,-0.73 -0.68,-1.63 -0.68,-2.33 0,-1.17 0.62,-1.58 2.37,-1.58 0.63,0 1.13,0.07 1.5,0.2 -0.3,0.1 -0.6,0.3 -0.89,0.58 -0.6,0.6 -1.11,1.55 -1.34,2.49 -0.16,0.66 -0.17,1.25 -0.04,1.73 -0.33,-0.24 -0.65,-0.61 -0.92,-1.1zm1.17 -4.44c-0.34,0 -0.64,-0.22 -0.74,-0.53l0.22 0c0.14,0 0.28,0.04 0.41,0.12 0.19,0.12 0.43,-0.05 0.4,-0.27l-0 -0.01c-0.01,-0.04 -0.01,-0.08 -0.01,-0.1 0,-0.26 0.14,-0.5 0.26,-0.66 0.12,0.16 0.26,0.4 0.26,0.66 0,0.03 -0.01,0.06 -0.01,0.1l-0 0.01c-0.03,0.22 0.21,0.38 0.4,0.27 0.13,-0.08 0.26,-0.12 0.41,-0.12l0.22 0c-0.11,0.31 -0.4,0.53 -0.74,0.53l-1.05 0zm4.15 0.6l0.15 0.15c0.1,0.1 0.17,0.22 0.2,0.37 0.05,0.22 0.34,0.27 0.47,0.09l0.01 -0.01c0.02,-0.03 0.04,-0.06 0.07,-0.08 0.18,-0.18 0.45,-0.25 0.65,-0.28 -0.03,0.2 -0.1,0.47 -0.28,0.65 -0.02,0.02 -0.05,0.04 -0.08,0.07l-0.01 0.01c-0.18,0.13 -0.12,0.42 0.09,0.47 0.15,0.04 0.27,0.1 0.37,0.2l0.15 0.15c-0.1,0.05 -0.22,0.08 -0.34,0.08 -0.21,0 -0.41,-0.08 -0.56,-0.23l-0.74 -0.74c-0.24,-0.24 -0.29,-0.61 -0.15,-0.9z"/>
   <path class="fil0" d="M5.56 5.83l0.37 -0.37c0.1,-0.1 0.1,-0.27 0,-0.37 -0.1,-0.1 -0.27,-0.1 -0.37,0l-0.37 0.37c-0.1,0.1 -0.1,0.27 0,0.37 0.1,0.1 0.27,0.1 0.37,0z"/>
   <path class="fil0" d="M3.7 6.95l-0.37 0.37c-0.1,0.1 -0.1,0.27 0,0.37 0.1,0.1 0.27,0.1 0.37,0l0.37 -0.37c0.1,-0.1 0.1,-0.27 0,-0.37 -0.1,-0.1 -0.27,-0.1 -0.37,0z"/>
   <path class="fil0" d="M3.7 6.21l0.37 -0.37c0.1,-0.1 0.1,-0.27 0,-0.37 -0.1,-0.1 -0.27,-0.1 -0.37,0l-0.37 0.37c-0.1,0.1 -0.1,0.27 0,0.37 0.1,0.1 0.27,0.1 0.37,0z"/>
   <path class="fil0" d="M5.71 6.43l-0.37 0.37c-0.1,0.1 -0.1,0.27 0,0.37 0.1,0.1 0.27,0.1 0.37,0l0.37 -0.37c0.1,-0.1 0.1,-0.27 0,-0.37 -0.1,-0.1 -0.27,-0.1 -0.37,0z"/>
   <path class="fil0" d="M5.19 3.6c-0.1,-0.1 -0.27,-0.1 -0.37,0l-0.37 0.37c-0.1,0.1 -0.1,0.27 0,0.37 0.1,0.1 0.27,0.1 0.37,0l0.37 -0.37c0.1,-0.1 0.1,-0.27 0,-0.37z"/>
   <path class="fil0" d="M7.05 5.83l-0.37 0.37c-0.1,0.1 -0.1,0.27 0,0.37 0.1,0.1 0.27,0.1 0.37,0l0.37 -0.37c0.1,-0.1 0.1,-0.27 0,-0.37 -0.1,-0.1 -0.27,-0.1 -0.37,0z"/>
  </g>
 </g>
</svg>
