<?xml version="1.0" encoding="UTF-8"?>
<!DOCTYPE svg PUBLIC "-//W3C//DTD SVG 1.1//EN" "http://www.w3.org/Graphics/SVG/1.1/DTD/svg11.dtd">
<!-- Creator: CorelDRAW 2020 (64-Bit) -->
<svg xmlns="http://www.w3.org/2000/svg" xml:space="preserve" width="5.4178mm" height="5.4187mm" version="1.1" style="shape-rendering:geometricPrecision; text-rendering:geometricPrecision; image-rendering:optimizeQuality; fill-rule:evenodd; clip-rule:evenodd"
viewBox="0 0 11.05 11.05"
 xmlns:xlink="http://www.w3.org/1999/xlink"
 xmlns:xodm="http://www.corel.com/coreldraw/odm/2003">
 <defs>
  <style type="text/css">
   <![CDATA[
    .fil0 {fill:#078743;fill-rule:nonzero}
   ]]>
  </style>
 </defs>
 <g id="Capa_x0020_1">
  <metadata id="CorelCorpID_0Corel-Layer"/>
  <path class="fil0" d="M10.4 7.6c0.36,0 0.65,-0.29 0.65,-0.65l0 -1.55c0,-0.36 -0.29,-0.65 -0.65,-0.65l-2.36 0c0.08,-0.15 0.13,-0.29 0.16,-0.42 0.04,0.04 0.08,0.07 0.13,0.11 0.48,0.34 1.15,0.4 1.97,0.17 0.07,-0.02 0.13,-0.08 0.15,-0.15 0.23,-0.83 0.18,-1.49 -0.17,-1.97 -0.03,-0.05 -0.07,-0.09 -0.11,-0.13 0.23,-0.06 0.5,-0.18 0.78,-0.4 0.08,-0.07 0.11,-0.18 0.05,-0.27 -0.38,-0.68 -0.87,-0.89 -1.21,-0.96 -0.09,-0.02 -0.18,-0.02 -0.26,-0.03 0.02,-0.09 0.04,-0.2 0.06,-0.32 0.01,-0.11 -0.05,-0.2 -0.15,-0.23 -0.78,-0.22 -1.37,-0.17 -1.77,0.16 -0.29,0.24 -0.4,0.57 -0.45,0.84 -0.43,-0.26 -0.98,-0.24 -1.41,0.06l-0.02 0.01c0.01,-0.2 -0.03,-0.41 -0.12,-0.6 -0.12,-0.25 -0.33,-0.45 -0.59,-0.54 -0.26,-0.1 -0.55,-0.08 -0.8,0.04 -0.36,0.17 -0.55,0.54 -0.5,0.91 -0.43,-0.17 -0.93,-0.08 -1.27,0.27 -0.44,0.44 -0.46,1.14 -0.07,1.6 -0.16,0.06 -0.31,0.15 -0.43,0.28 -0.44,0.44 -0.46,1.13 -0.08,1.59l-1.29 0c-0.36,0 -0.65,0.29 -0.65,0.65l0 1.55c0,0.36 0.29,0.65 0.65,0.65l0.52 0 0 0.6 -0.52 0c-0.36,0 -0.65,0.29 -0.65,0.65l0 1.55c0,0.36 0.29,0.65 0.65,0.65l9.76 0c0.36,0 0.65,-0.29 0.65,-0.65l0 -1.55c0,-0.36 -0.29,-0.65 -0.65,-0.65l-0.52 0 0 -0.6 0.52 0zm-5.67 -4.87c0.19,0 0.39,0.07 0.53,0.22 0.29,0.29 0.29,0.77 0,1.07 -0,0 -0,0 -0,0 0,0 0,0 -0,0 -0.29,0.29 -0.77,0.29 -1.07,-0 -0.29,-0.29 -0.29,-0.77 0,-1.07 0.15,-0.15 0.34,-0.22 0.53,-0.22zm-0.5 1.88c0.16,0 0.31,0.05 0.43,0.14l-0.87 0c0.13,-0.09 0.28,-0.14 0.43,-0.14zm1.34 -0.28c0.14,-0.14 0.33,-0.22 0.53,-0.22 0.2,0 0.39,0.08 0.53,0.22 0.12,0.12 0.19,0.26 0.21,0.42l-1.49 0c0.02,-0.16 0.1,-0.31 0.21,-0.42zm0.86 -0.61c0.05,-0.01 0.09,-0.02 0.13,-0.03 0,0.02 0,0.05 0,0.08 -0.04,-0.02 -0.09,-0.03 -0.14,-0.05zm1.54 -3.09c0.25,-0.21 0.65,-0.25 1.19,-0.12 -0.04,0.21 -0.09,0.29 -0.1,0.3 -0.07,0.07 -0.09,0.17 -0.04,0.26 0.05,0.09 0.16,0.13 0.26,0.1 0.03,-0.01 0.73,-0.23 1.27,0.56 -0.51,0.33 -0.92,0.23 -0.97,0.22 -0.11,-0.03 -0.23,0.04 -0.26,0.15 -0.03,0.11 0.03,0.23 0.15,0.27 0.11,0.03 1,0.35 0.62,1.86 -1.51,0.38 -1.83,-0.52 -1.86,-0.62 -0.03,-0.11 -0.15,-0.18 -0.27,-0.15 -0.11,0.03 -0.18,0.15 -0.15,0.26 0.01,0.05 0.11,0.46 -0.22,0.97 -0.79,-0.54 -0.57,-1.24 -0.56,-1.27 0.03,-0.1 -0.01,-0.21 -0.1,-0.26 -0.03,-0.02 -0.07,-0.03 -0.11,-0.03 -0.06,0 -0.11,0.02 -0.15,0.07 -0.01,0.01 -0.09,0.06 -0.3,0.1 -0.13,-0.54 -0.08,-0.94 0.12,-1.19 0.25,-0.3 0.68,-0.32 0.85,-0.32l0.17 0.17 -0.06 0.96c-0.01,0.12 0.08,0.22 0.2,0.23 0,0 0.01,0 0.01,0 0.11,0 0.21,-0.09 0.22,-0.2l0.04 -0.58 1.12 1.12c0.04,0.04 0.1,0.06 0.15,0.06 0.06,0 0.11,-0.02 0.15,-0.06 0.08,-0.08 0.08,-0.22 0,-0.31l-1.12 -1.12 0.58 -0.04c0.12,-0.01 0.21,-0.11 0.2,-0.23 -0.01,-0.12 -0.11,-0.21 -0.23,-0.2l-0.96 0.06 -0.17 -0.17c-0,-0.17 0.02,-0.6 0.32,-0.85zm-1.89 0.92c0.22,-0.16 0.49,-0.2 0.73,-0.13 -0.22,0.06 -0.47,0.18 -0.65,0.4 -0.33,0.39 -0.38,0.99 -0.16,1.77 0.01,0.03 0.02,0.06 0.04,0.08 -0.05,0 -0.1,0.01 -0.15,0.02 0.06,-0.37 -0.05,-0.76 -0.33,-1.04 -0.16,-0.16 -0.37,-0.27 -0.59,-0.32l1.1 -0.78zm-1.6 -1.06c0.31,-0.14 0.68,-0.01 0.83,0.3 0.13,0.27 0.1,0.59 -0.08,0.84l-0.68 0.48c-0,-0.14 -0.03,-0.27 -0.07,-0.4 0.13,0.01 0.27,-0.01 0.39,-0.07 0.11,-0.05 0.15,-0.18 0.1,-0.29 -0.05,-0.11 -0.18,-0.15 -0.29,-0.1 -0.16,0.07 -0.35,0.01 -0.42,-0.15 -0.11,-0.23 -0.01,-0.5 0.22,-0.6zm-1.65 1.09c0.15,-0.15 0.34,-0.22 0.53,-0.22 0.19,0 0.39,0.07 0.53,0.22 0.29,0.29 0.29,0.77 0,1.07 -0.29,0.29 -0.77,0.29 -1.07,0 -0.29,-0.29 -0.29,-0.77 -0,-1.07zm-0.5 2.95c-0.29,-0.29 -0.29,-0.77 0,-1.07 0.14,-0.14 0.33,-0.22 0.53,-0.22 0.2,0 0.39,0.08 0.53,0.22 0.29,0.29 0.29,0.77 0,1.07 -0.14,0.14 -0.33,0.22 -0.53,0.22l-0 0c-0.2,-0 -0.39,-0.08 -0.53,-0.22zm-1.89 2.42l0 -1.55c0,-0.12 0.1,-0.22 0.22,-0.22l6.95 0c0.02,0 0.03,0.01 0.05,0.01 0.02,0 0.03,-0 0.05,-0.01l2.71 0c0.12,0 0.22,0.1 0.22,0.22l0 1.55c0,0.12 -0.1,0.22 -0.22,0.22l-3.98 0c-0.12,0 -0.22,0.1 -0.22,0.22 0,0.12 0.1,0.22 0.22,0.22l1.99 0 0 0.6 -5.78 0 0 -0.6 1.91 0c0.12,0 0.22,-0.1 0.22,-0.22 0,-0.12 -0.1,-0.22 -0.22,-0.22l-3.89 0c-0.12,0 -0.22,-0.1 -0.22,-0.22zm1.17 0.65l0.6 0 0 0.6 -0.6 0 0 -0.6zm9.02 1.25l0 1.55c0,0.12 -0.1,0.22 -0.22,0.22l-9.76 0c-0.12,0 -0.22,-0.1 -0.22,-0.22l0 -1.55c0,-0.12 0.1,-0.22 0.22,-0.22l9.76 0c0.12,0 0.22,0.1 0.22,0.22zm-1.17 -0.65l-0.6 0 0 -0.6 0.6 0 0 0.6z"/>
 </g>
</svg>
