<?xml version="1.0" encoding="UTF-8"?>
<!DOCTYPE svg PUBLIC "-//W3C//DTD SVG 1.1//EN" "http://www.w3.org/Graphics/SVG/1.1/DTD/svg11.dtd">
<!-- Creator: CorelDRAW 2020 (64-Bit) -->
<svg xmlns="http://www.w3.org/2000/svg" xml:space="preserve" width="5.7027mm" height="5.7027mm" version="1.1" style="shape-rendering:geometricPrecision; text-rendering:geometricPrecision; image-rendering:optimizeQuality; fill-rule:evenodd; clip-rule:evenodd"
viewBox="0 0 14.28 14.28"
 xmlns:xlink="http://www.w3.org/1999/xlink"
 xmlns:xodm="http://www.corel.com/coreldraw/odm/2003">
 <defs>
  <style type="text/css">
   <![CDATA[
    .fil0 {fill:#078743;fill-rule:nonzero}
   ]]>
  </style>
 </defs>
 <g id="Capa_x0020_1">
  <metadata id="CorelCorpID_0Corel-Layer"/>
  <path class="fil0" d="M13.87 6.72l-0.61 0 0.32 -0.56c0.12,-0.2 0.05,-0.46 -0.15,-0.57 -0.2,-0.12 -0.46,-0.05 -0.57,0.15l-0.57 0.98 -1.66 0 0.38 -0.87c0.05,-0.1 0.05,-0.22 0,-0.33 -0.04,-0.1 -0.13,-0.19 -0.23,-0.23l-0.87 -0.34 1.17 -1.17 1.09 0.29c0.04,0.01 0.07,0.01 0.11,0.01 0.18,0 0.35,-0.12 0.4,-0.31 0.06,-0.22 -0.07,-0.45 -0.3,-0.51l-0.63 -0.17 0.43 -0.43c0.16,-0.16 0.16,-0.43 0,-0.59 -0.16,-0.16 -0.43,-0.16 -0.59,0l-0.43 0.43 -0.17 -0.63c-0.06,-0.22 -0.29,-0.36 -0.51,-0.3 -0.22,0.06 -0.36,0.29 -0.3,0.51l0.29 1.09 -1.17 1.17 -0.35 -0.88c-0.04,-0.11 -0.12,-0.19 -0.23,-0.23 -0.11,-0.04 -0.22,-0.04 -0.33,0l-0.85 0.38 0 -1.65 0.98 -0.57c0.2,-0.12 0.27,-0.37 0.15,-0.57 -0.12,-0.2 -0.37,-0.27 -0.57,-0.15l-0.56 0.32 0 -0.61c0,-0.23 -0.19,-0.42 -0.42,-0.42 -0.23,0 -0.42,0.19 -0.42,0.42l0 0.61 -0.56 -0.32c-0.2,-0.12 -0.46,-0.05 -0.57,0.15 -0.12,0.2 -0.05,0.46 0.15,0.57l0.98 0.57 0 1.66 -0.87 -0.38c-0.1,-0.05 -0.22,-0.05 -0.33,-0 -0.1,0.04 -0.19,0.13 -0.23,0.23l-0.34 0.87 -1.17 -1.17 0.29 -1.09c0.06,-0.22 -0.07,-0.45 -0.3,-0.51 -0.22,-0.06 -0.45,0.07 -0.51,0.3l-0.17 0.63 -0.43 -0.43c-0.16,-0.16 -0.43,-0.16 -0.59,0 -0.16,0.16 -0.16,0.43 0,0.59l0.43 0.43 -0.63 0.17c-0.22,0.06 -0.36,0.29 -0.3,0.51 0.05,0.19 0.22,0.31 0.4,0.31 0.04,0 0.07,-0 0.11,-0.01l1.09 -0.29 1.17 1.17 -0.88 0.35c-0.11,0.04 -0.19,0.12 -0.23,0.23 -0.04,0.11 -0.04,0.22 0,0.33l0.38 0.85 -1.65 0 -0.57 -0.98c-0.12,-0.2 -0.37,-0.27 -0.57,-0.15 -0.2,0.12 -0.27,0.37 -0.15,0.57l0.32 0.56 -0.61 0c-0.23,0 -0.42,0.19 -0.42,0.42 0,0.23 0.19,0.42 0.42,0.42l0.61 0 -0.32 0.56c-0.12,0.2 -0.05,0.46 0.15,0.57 0.07,0.04 0.14,0.06 0.21,0.06 0.14,0 0.29,-0.08 0.36,-0.21l0.57 -0.98 1.66 0 -0.38 0.87c-0.05,0.1 -0.05,0.22 -0,0.33 0.04,0.11 0.13,0.19 0.23,0.23l0.87 0.34 -1.17 1.17 -1.09 -0.29c-0.22,-0.06 -0.45,0.07 -0.51,0.3 -0.06,0.22 0.07,0.45 0.3,0.51l0.63 0.17 -0.43 0.43c-0.16,0.16 -0.16,0.43 0,0.59 0.08,0.08 0.19,0.12 0.3,0.12 0.11,0 0.21,-0.04 0.3,-0.12l0.43 -0.43 0.17 0.63c0.05,0.19 0.22,0.31 0.4,0.31 0.04,0 0.07,-0 0.11,-0.01 0.22,-0.06 0.36,-0.29 0.3,-0.51l-0.29 -1.09 1.17 -1.17 0.35 0.88c0.04,0.11 0.12,0.19 0.23,0.23 0.05,0.02 0.1,0.03 0.16,0.03 0.06,0 0.11,-0.01 0.17,-0.04l0.85 -0.38 0 1.65 -0.98 0.57c-0.2,0.12 -0.27,0.37 -0.15,0.57 0.08,0.13 0.22,0.21 0.36,0.21 0.07,0 0.14,-0.02 0.21,-0.06l0.56 -0.32 0 0.61c0,0.23 0.19,0.42 0.42,0.42 0.23,0 0.42,-0.19 0.42,-0.42l0 -0.61 0.56 0.32c0.07,0.04 0.14,0.06 0.21,0.06 0.14,0 0.29,-0.07 0.36,-0.21 0.12,-0.2 0.05,-0.46 -0.15,-0.57l-0.98 -0.57 0 -1.66 0.87 0.38c0.1,0.05 0.22,0.05 0.33,0 0.11,-0.04 0.19,-0.13 0.23,-0.23l0.34 -0.87 1.17 1.17 -0.29 1.09c-0.06,0.22 0.07,0.45 0.3,0.51 0.04,0.01 0.07,0.01 0.11,0.01 0.18,0 0.35,-0.12 0.4,-0.31l0.17 -0.63 0.43 0.43c0.08,0.08 0.19,0.12 0.3,0.12 0.11,0 0.21,-0.04 0.3,-0.12 0.16,-0.16 0.16,-0.43 0,-0.59l-0.43 -0.43 0.63 -0.17c0.22,-0.06 0.36,-0.29 0.3,-0.51 -0.06,-0.22 -0.29,-0.36 -0.51,-0.3l-1.09 0.29 -1.17 -1.17 0.88 -0.35c0.11,-0.04 0.19,-0.12 0.23,-0.23 0.04,-0.11 0.04,-0.22 -0,-0.33l-0.38 -0.85 1.65 0 0.57 0.98c0.08,0.13 0.22,0.21 0.36,0.21 0.07,0 0.14,-0.02 0.21,-0.06 0.2,-0.12 0.27,-0.37 0.15,-0.57l-0.32 -0.56 0.61 0c0.23,0 0.42,-0.19 0.42,-0.42 0,-0.23 -0.19,-0.42 -0.42,-0.42zm-8.85 -1.11l1.11 1.11 -1.57 0 -0.35 -0.79 0.81 -0.32zm-0 3.06l-0.81 -0.31 0.35 -0.8 1.57 0 -1.11 1.11zm1.71 1.05l-0.79 0.35 -0.32 -0.81 1.11 -1.11 0 1.57zm0 -3.6l-1.11 -1.11 0.31 -0.81 0.8 0.35 0 1.57zm2.54 -0.52l0.81 0.31 -0.35 0.8 -1.57 0 1.11 -1.11zm-1.71 -1.05l0.79 -0.35 0.32 0.81 -1.11 1.11 0 -1.57zm0.8 5.52l-0.8 -0.35 0 -1.57 1.11 1.11 -0.31 0.81zm0.9 -1.4l-1.11 -1.11 1.57 0 0.35 0.79 -0.81 0.32z"/>
 </g>
</svg>
