<?xml version="1.0" encoding="UTF-8"?>
<!DOCTYPE svg PUBLIC "-//W3C//DTD SVG 1.1//EN" "http://www.w3.org/Graphics/SVG/1.1/DTD/svg11.dtd">
<!-- Creator: CorelDRAW 2020 (64-Bit) -->
<svg xmlns="http://www.w3.org/2000/svg" xml:space="preserve" width="5.207mm" height="5.4188mm" version="1.1" style="shape-rendering:geometricPrecision; text-rendering:geometricPrecision; image-rendering:optimizeQuality; fill-rule:evenodd; clip-rule:evenodd"
viewBox="0 0 10.22 10.63"
 xmlns:xlink="http://www.w3.org/1999/xlink"
 xmlns:xodm="http://www.corel.com/coreldraw/odm/2003">
 <defs>
  <style type="text/css">
   <![CDATA[
    .fil0 {fill:#078743;fill-rule:nonzero}
   ]]>
  </style>
 </defs>
 <g id="Capa_x0020_1">
  <metadata id="CorelCorpID_0Corel-Layer"/>
  <path class="fil0" d="M0.64 9.99c0.85,0.85 2.23,0.85 3.08,-0 0.22,-0.22 4.03,-4.04 4.17,-4.18 0.61,-0.61 0.78,-1.51 0.51,-2.27l0.58 -0.58c0.88,1.1 0.81,2.71 -0.21,3.73l-1.14 1.14c-0.35,-0.17 -0.78,-0.1 -1.06,0.18 -0.37,0.37 -0.37,0.96 0,1.32 0.36,0.36 0.96,0.36 1.32,0 0.29,-0.29 0.35,-0.72 0.18,-1.06l1.14 -1.14c1.27,-1.27 1.33,-3.31 0.18,-4.65 0.17,-0.35 0.11,-0.78 -0.18,-1.07 -0.29,-0.29 -0.72,-0.35 -1.06,-0.18l-0.48 -0.48 0.22 -0.22c0.12,-0.12 0.12,-0.32 0,-0.44 -0.12,-0.12 -0.32,-0.12 -0.44,0 -0.32,0.32 -0.57,0.57 -0.88,0.88 -0.12,0.12 -0.12,0.32 0,0.44 0.12,0.12 0.32,0.12 0.44,0l0.22 -0.22 0.44 0.44 -0.59 0.59c-0.76,-0.27 -1.65,-0.11 -2.27,0.51 -0.22,0.22 -4.03,4.04 -4.17,4.18 -0.85,0.85 -0.85,2.23 0,3.08zm6.81 -1.09c-0.12,0.12 -0.32,0.12 -0.44,0 -0.12,-0.12 -0.12,-0.32 0,-0.44 0.12,-0.12 0.32,-0.12 0.44,0 0.12,0.12 0.12,0.32 0,0.44zm-2.86 -5.07l2.2 2.2 -2.85 2.85 -2.2 -2.2 2.85 -2.85zm3.74 -1.98c0.12,-0.12 0.32,-0.12 0.44,0 0.12,0.12 0.12,0.32 0,0.44l-0.68 0.68c-0.12,-0.16 -0.27,-0.31 -0.44,-0.44l0.68 -0.68zm-0.88 1.32c0.61,0.61 0.61,1.6 0,2.2l-0.22 0.22 -2.2 -2.2 0.22 -0.22c0.61,-0.61 1.59,-0.61 2.2,0zm-6.37 4.18l0.22 -0.22 2.2 2.2 -0.22 0.22c-0.61,0.61 -1.6,0.61 -2.2,0 -0.61,-0.61 -0.61,-1.59 0,-2.2z"/>
 </g>
</svg>
