<?xml version="1.0" encoding="UTF-8"?>
<!DOCTYPE svg PUBLIC "-//W3C//DTD SVG 1.1//EN" "http://www.w3.org/Graphics/SVG/1.1/DTD/svg11.dtd">
<!-- Creator: CorelDRAW 2020 (64-Bit) -->
<svg xmlns="http://www.w3.org/2000/svg" xml:space="preserve" width="4.5109mm" height="4.512mm" version="1.1" style="shape-rendering:geometricPrecision; text-rendering:geometricPrecision; image-rendering:optimizeQuality; fill-rule:evenodd; clip-rule:evenodd"
viewBox="0 0 8.98 8.99"
 xmlns:xlink="http://www.w3.org/1999/xlink"
 xmlns:xodm="http://www.corel.com/coreldraw/odm/2003">
 <defs>
  <style type="text/css">
   <![CDATA[
    .fil0 {fill:#078743;fill-rule:nonzero}
   ]]>
  </style>
 </defs>
 <g id="Capa_x0020_1">
  <metadata id="CorelCorpID_0Corel-Layer"/>
  <g id="_2808225206960">
   <path class="fil0" d="M7.53 2.09c-0.01,0 -0.01,0 -0.02,0 -0.33,-0.01 -0.43,-0.18 -0.45,-0.31 0.03,-0.12 0.12,-0.29 0.44,-0.29 0.01,0 0.01,0 0.02,0 0.32,0.01 0.53,0.18 0.64,0.31 -0.11,0.13 -0.32,0.28 -0.63,0.28zm-3.12 6.07c-0.02,0 -2.24,0.43 -3.46,-0.8 -0.14,-0.14 -0.2,-0.29 -0.2,-0.47 0,-0.52 0.54,-1.15 0.74,-1.35 0.05,-0.05 0.09,-0.12 0.11,-0.19 0.15,-0.69 0.78,-2.92 2.83,-2.96 0.02,0 0.04,0 0.06,0 1.59,0 2.88,1.29 2.88,2.88 0,1.74 -1.58,2.64 -2.95,2.89zm3.13 -7.41c-0.01,-0 -0.02,-0 -0.03,-0 -0.31,0 -0.56,0.09 -0.74,0.22 -0.12,-0.27 -0.31,-0.56 -0.59,-0.86 -0.14,-0.15 -0.38,-0.16 -0.53,-0.02 -0.15,0.14 -0.16,0.38 -0.02,0.53 0.56,0.6 0.62,1.09 0.54,1.44 -0.49,-0.26 -1.04,-0.41 -1.63,-0.42 -0.02,-0 -0.04,-0.01 -0.07,-0.01 -1.76,0 -3.1,1.28 -3.59,3.44 -0.24,0.25 -0.88,1 -0.89,1.8 -0,0.38 0.14,0.73 0.42,1.01 0.91,0.91 2.19,1.1 3.08,1.1 0.59,0 1.02,-0.08 1.05,-0.09 2.16,-0.39 3.56,-1.81 3.56,-3.62 0,-0.96 -0.38,-1.84 -0.99,-2.49 0.11,0.03 0.24,0.06 0.39,0.06 0.01,0 0.02,0 0.03,0 0.99,0 1.4,-0.83 1.42,-0.86 0.02,-0.05 0.04,-0.11 0.04,-0.16l0 -0c0,-0.05 -0.01,-0.1 -0.03,-0.15 -0.02,-0.04 -0.41,-0.9 -1.42,-0.91z"/>
   <path class="fil0" d="M3.91 3.04c-0.88,0.16 -1.17,0.98 -1.18,1.02 -0.07,0.2 0.04,0.41 0.24,0.47 0.04,0.01 0.08,0.02 0.12,0.02 0.16,0 0.3,-0.1 0.36,-0.26 0,-0 0.16,-0.44 0.6,-0.52 0.2,-0.04 0.34,-0.23 0.3,-0.44 -0.04,-0.2 -0.23,-0.34 -0.44,-0.3z"/>
  </g>
 </g>
</svg>
