<?xml version="1.0" encoding="UTF-8"?>
<!DOCTYPE svg PUBLIC "-//W3C//DTD SVG 1.1//EN" "http://www.w3.org/Graphics/SVG/1.1/DTD/svg11.dtd">
<!-- Creator: CorelDRAW 2020 (64-Bit) -->
<svg xmlns="http://www.w3.org/2000/svg" xml:space="preserve" width="4.5112mm" height="4.5121mm" version="1.1" style="shape-rendering:geometricPrecision; text-rendering:geometricPrecision; image-rendering:optimizeQuality; fill-rule:evenodd; clip-rule:evenodd"
viewBox="0 0 8.99 8.99"
 xmlns:xlink="http://www.w3.org/1999/xlink"
 xmlns:xodm="http://www.corel.com/coreldraw/odm/2003">
 <defs>
  <style type="text/css">
   <![CDATA[
    .fil0 {fill:#078743;fill-rule:nonzero}
   ]]>
  </style>
 </defs>
 <g id="Capa_x0020_1">
  <metadata id="CorelCorpID_0Corel-Layer"/>
  <g>
   <path class="fil0" d="M3.58 8.99c-0.01,0 -0.02,0 -0.02,-0 -0.95,-0.01 -1.84,-0.38 -2.52,-1.06 -0.67,-0.68 -1.04,-1.57 -1.04,-2.52 -0,-0.95 0.37,-1.84 1.04,-2.52 0.31,-0.32 0.99,-0.93 1.96,-1.45 1.02,-0.54 2.04,-0.82 3.06,-0.82 0.62,0 1.2,0.24 1.64,0.69 0.43,0.44 0.66,1.01 0.66,1.63 -0,0.61 -0.24,1.19 -0.68,1.62 -0,0 -0,0 -0.01,0.01 -0.33,0.32 -0.55,0.78 -0.6,1.24 -0.08,0.87 -0.4,1.58 -0.99,2.15 -0.68,0.66 -1.57,1.03 -2.51,1.03zm2.47 -7.66c-2.36,0 -4.18,1.71 -4.52,2.06 -1.11,1.12 -1.11,2.94 0,4.05 1.11,1.12 2.93,1.13 4.06,0.03 0.47,-0.46 0.71,-1 0.78,-1.72 0.06,-0.63 0.35,-1.24 0.81,-1.68 0.62,-0.62 0.62,-1.63 0.01,-2.26 -0.3,-0.31 -0.71,-0.48 -1.14,-0.48zm1.37 2.99l0 0 -0 0zm-3.85 2.64c-0.4,0 -0.79,-0.15 -1.09,-0.45 -0.6,-0.6 -0.6,-1.58 0,-2.18 0.28,-0.28 0.74,-0.52 1.2,-0.63 0.58,-0.14 1.07,-0.05 1.37,0.25 0.3,0.3 0.39,0.79 0.25,1.37 -0.11,0.46 -0.35,0.92 -0.63,1.2 -0.3,0.3 -0.7,0.45 -1.09,0.45zm0.84 -0.7l0 0 -0 0zm-0.23 -1.93c-0.1,0 -0.22,0.01 -0.34,0.04 -0.33,0.08 -0.68,0.26 -0.87,0.45 -0.33,0.33 -0.33,0.86 0,1.19 0.33,0.33 0.86,0.33 1.19,0 0.19,-0.19 0.37,-0.54 0.45,-0.87 0.08,-0.32 0.05,-0.59 -0.06,-0.71 -0.07,-0.07 -0.2,-0.11 -0.36,-0.11zm4.42 -3.19c0.15,-0.2 0.26,-0.36 0.36,-0.67 0.05,-0.19 -0.05,-0.38 -0.24,-0.44 -0.19,-0.05 -0.38,0.05 -0.44,0.24 -0.06,0.2 -0.12,0.29 -0.24,0.45 -0.12,0.15 -0.09,0.37 0.07,0.49 0.06,0.05 0.14,0.07 0.21,0.07 0.11,0 0.21,-0.05 0.28,-0.14z"/>
  </g>
 </g>
</svg>
