<?xml version="1.0" encoding="UTF-8"?>
<!DOCTYPE svg PUBLIC "-//W3C//DTD SVG 1.1//EN" "http://www.w3.org/Graphics/SVG/1.1/DTD/svg11.dtd">
<!-- Creator: CorelDRAW 2020 (64-Bit) -->
<svg xmlns="http://www.w3.org/2000/svg" xml:space="preserve" width="3.8388mm" height="4.48mm" version="1.1" style="shape-rendering:geometricPrecision; text-rendering:geometricPrecision; image-rendering:optimizeQuality; fill-rule:evenodd; clip-rule:evenodd"
viewBox="0 0 5.58 6.51"
 xmlns:xlink="http://www.w3.org/1999/xlink"
 xmlns:xodm="http://www.corel.com/coreldraw/odm/2003">
 <defs>
  <style type="text/css">
   <![CDATA[
    .fil0 {fill:#078743;fill-rule:nonzero}
   ]]>
  </style>
 </defs>
 <g id="Capa_x0020_1">
  <metadata id="CorelCorpID_0Corel-Layer"/>
  <g id="_2808076352688">
   <path class="fil0" d="M5 0.39c-0.39,0.43 -1,0.69 -1.65,0.69l-1.12 0c-0.66,0 -1.26,-0.26 -1.65,-0.69l4.42 0zm-1.86 1.57l-0.7 0 0 -0.49 0.7 0 0 0.49zm1.59 0.64l0.39 3.2c0.01,0.08 -0.01,0.17 -0.07,0.23 -0.06,0.06 -0.13,0.1 -0.22,0.1l-4.1 0c-0.08,0 -0.16,-0.03 -0.22,-0.1 -0.06,-0.06 -0.08,-0.14 -0.07,-0.23l0.39 -3.2c0.02,-0.15 0.14,-0.26 0.29,-0.26l3.31 0c0.15,0 0.27,0.11 0.29,0.26zm-0.1 -1.45c0.39,-0.21 0.71,-0.5 0.92,-0.86 0.04,-0.06 0.04,-0.13 0,-0.19 -0.03,-0.06 -0.1,-0.1 -0.17,-0.1l-5.19 0c-0.07,0 -0.13,0.04 -0.17,0.1 -0.03,0.06 -0.03,0.13 0,0.19 0.21,0.35 0.53,0.65 0.92,0.86 0.34,0.18 0.72,0.28 1.11,0.31l0 0.5 -0.92 0c-0.34,0 -0.63,0.26 -0.67,0.6l-0.39 3.2c-0.02,0.19 0.04,0.39 0.17,0.53 0.13,0.15 0.31,0.23 0.51,0.23l4.1 0c0.19,0 0.38,-0.08 0.51,-0.23 0.13,-0.15 0.19,-0.34 0.17,-0.53l-0.39 -3.2c-0.04,-0.34 -0.33,-0.6 -0.67,-0.6l-0.92 0 0 -0.5c0.39,-0.02 0.77,-0.13 1.11,-0.31z"/>
   <path class="fil0" d="M2.79 5.44c-0.66,0 -1.2,-0.54 -1.2,-1.2 0,-0.66 0.54,-1.2 1.2,-1.2 0.66,0 1.2,0.54 1.2,1.2 0,0.66 -0.54,1.2 -1.2,1.2zm-1.59 -1.2c0,0.88 0.71,1.59 1.59,1.59 0.88,0 1.59,-0.71 1.59,-1.59 0,-0.88 -0.71,-1.59 -1.59,-1.59 -0.88,0 -1.59,0.71 -1.59,1.59z"/>
   <path class="fil0" d="M2.65 4.1l-0.47 0.47c-0.08,0.08 -0.08,0.2 0,0.27 0.04,0.04 0.09,0.06 0.14,0.06 0.05,0 0.1,-0.02 0.14,-0.06l0.47 -0.47c0.08,-0.08 0.08,-0.2 0,-0.27 -0.08,-0.08 -0.2,-0.08 -0.27,0z"/>
  </g>
 </g>
</svg>
