<?xml version="1.0" encoding="UTF-8"?>
<!DOCTYPE svg PUBLIC "-//W3C//DTD SVG 1.1//EN" "http://www.w3.org/Graphics/SVG/1.1/DTD/svg11.dtd">
<!-- Creator: CorelDRAW 2020 (64-Bit) -->
<svg xmlns="http://www.w3.org/2000/svg" xml:space="preserve" width="4.7903mm" height="4.7903mm" version="1.1" style="shape-rendering:geometricPrecision; text-rendering:geometricPrecision; image-rendering:optimizeQuality; fill-rule:evenodd; clip-rule:evenodd"
viewBox="0 0 8.66 8.66"
 xmlns:xlink="http://www.w3.org/1999/xlink"
 xmlns:xodm="http://www.corel.com/coreldraw/odm/2003">
 <defs>
  <style type="text/css">
   <![CDATA[
    .fil0 {fill:#078743;fill-rule:nonzero}
   ]]>
  </style>
 </defs>
 <g id="Capa_x0020_1">
  <metadata id="CorelCorpID_0Corel-Layer"/>
  <g id="_2808078374256">
   <path class="fil0" d="M7.58 8.66l-6.49 0c-0.14,0 -0.25,-0.11 -0.25,-0.25l0 -3.26c0,-0.14 0.11,-0.25 0.25,-0.25l6.49 0c0.14,0 0.25,0.11 0.25,0.25l0 3.26c0,0.14 -0.11,0.25 -0.25,0.25zm-6.24 -0.51l5.99 0 0 -2.76 -5.99 0 0 2.76z"/>
   <path class="fil0" d="M7.9 5.4l-7.14 0c-0.42,0 -0.76,-0.34 -0.76,-0.76l0 -0.07c0,-0.42 0.34,-0.76 0.76,-0.76l7.14 0c0.42,0 0.76,0.34 0.76,0.76l0 0.07c0,0.42 -0.34,0.76 -0.76,0.76zm-7.14 -1.08c-0.14,0 -0.25,0.11 -0.25,0.25l0 0.07c0,0.14 0.11,0.25 0.25,0.25l7.14 0c0.14,0 0.25,-0.11 0.25,-0.25l0 -0.07c0,-0.14 -0.11,-0.25 -0.25,-0.25l-7.14 0z"/>
   <path class="fil0" d="M3.65 3.23l-2.98 0c-0.14,0 -0.25,-0.11 -0.25,-0.25l0 -2.16c0,-0.14 0.11,-0.25 0.25,-0.25l2.98 0c0.14,0 0.25,0.11 0.25,0.25l0 2.16c0,0.14 -0.11,0.25 -0.25,0.25zm-2.72 -0.51l2.47 0 0 -1.66 -2.47 0 0 1.66z"/>
   <path class="fil0" d="M7.98 4.31l-2.98 0c-0.14,0 -0.25,-0.11 -0.25,-0.25l0 -0.68c0,-0.96 0.78,-1.74 1.74,-1.74 0.96,0 1.74,0.78 1.74,1.74l0 0.68c0,0.14 -0.11,0.25 -0.25,0.25zm-2.72 -0.51l2.47 0 0 -0.42c0,-0.68 -0.55,-1.23 -1.23,-1.23 -0.68,0 -1.23,0.55 -1.23,1.23l0 0.42z"/>
   <path class="fil0" d="M2.16 4.31c-0.14,0 -0.25,-0.11 -0.25,-0.25l0 -1.08c0,-0.14 0.11,-0.25 0.25,-0.25 0.14,0 0.25,0.11 0.25,0.25l0 1.08c0,0.14 -0.11,0.25 -0.25,0.25z"/>
   <path class="fil0" d="M6.49 2.15c-0.59,0 -1.07,-0.48 -1.07,-1.07 0,-0.28 0.11,-0.55 0.31,-0.76 0.2,-0.21 0.47,-0.32 0.76,-0.32 0.28,0 0.55,0.11 0.76,0.32 0.2,0.21 0.31,0.48 0.31,0.76 0,0.59 -0.48,1.07 -1.07,1.07zm0 -1.64c-0.3,0 -0.56,0.26 -0.56,0.58 0,0.31 0.25,0.56 0.56,0.56 0.31,0 0.56,-0.25 0.56,-0.56 0,-0.31 -0.26,-0.58 -0.56,-0.58z"/>
  </g>
 </g>
</svg>
