<?xml version="1.0" encoding="UTF-8"?>
<!DOCTYPE svg PUBLIC "-//W3C//DTD SVG 1.1//EN" "http://www.w3.org/Graphics/SVG/1.1/DTD/svg11.dtd">
<!-- Creator: CorelDRAW 2020 (64-Bit) -->
<svg xmlns="http://www.w3.org/2000/svg" xml:space="preserve" width="6.2452mm" height="6.2452mm" version="1.1" style="shape-rendering:geometricPrecision; text-rendering:geometricPrecision; image-rendering:optimizeQuality; fill-rule:evenodd; clip-rule:evenodd"
viewBox="0 0 14.64 14.64"
 xmlns:xlink="http://www.w3.org/1999/xlink"
 xmlns:xodm="http://www.corel.com/coreldraw/odm/2003">
 <defs>
  <style type="text/css">
   <![CDATA[
    .fil0 {fill:#078743;fill-rule:nonzero}
   ]]>
  </style>
 </defs>
 <g id="Capa_x0020_1">
  <metadata id="CorelCorpID_0Corel-Layer"/>
  <g id="_2808191181056">
   <path class="fil0" d="M7.32 9.15c-1.01,0 -1.83,-0.82 -1.83,-1.83 0,-1.01 0.82,-1.83 1.83,-1.83 1.01,0 1.83,0.82 1.83,1.83 0,1.01 -0.82,1.83 -1.83,1.83zm0 -4.57c-1.51,0 -2.74,1.23 -2.74,2.74 0,1.51 1.23,2.74 2.74,2.74 1.51,0 2.74,-1.23 2.74,-2.74 0,-1.51 -1.23,-2.74 -2.74,-2.74z"/>
   <path class="fil0" d="M7.32 11.89c-2.52,0 -4.57,-2.05 -4.57,-4.57 0,-2.52 2.05,-4.57 4.57,-4.57 2.52,0 4.57,2.05 4.57,4.57 0,2.52 -2.05,4.57 -4.57,4.57zm6.86 -5.03l-1.4 0c-0.22,-2.66 -2.35,-4.79 -5.01,-5.01l0 -1.4c0,-0.25 -0.21,-0.46 -0.46,-0.46 -0.25,0 -0.46,0.2 -0.46,0.46l0 1.4c-2.66,0.22 -4.79,2.35 -5.01,5.01l-1.4 0c-0.25,0 -0.46,0.21 -0.46,0.46 0,0.25 0.2,0.46 0.46,0.46l1.4 0c0.22,2.66 2.35,4.79 5.01,5.01l0 1.4c0,0.25 0.21,0.46 0.46,0.46 0.25,0 0.46,-0.2 0.46,-0.46l0 -1.4c2.66,-0.22 4.79,-2.35 5.01,-5.01l1.4 0c0.25,0 0.46,-0.2 0.46,-0.46 0,-0.25 -0.2,-0.46 -0.46,-0.46z"/>
  </g>
 </g>
</svg>
