<?xml version="1.0" encoding="UTF-8"?>
<!DOCTYPE svg PUBLIC "-//W3C//DTD SVG 1.1//EN" "http://www.w3.org/Graphics/SVG/1.1/DTD/svg11.dtd">
<!-- Creator: CorelDRAW 2020 (64-Bit) -->
<svg xmlns="http://www.w3.org/2000/svg" xml:space="preserve" width="4.6686mm" height="4.1032mm" version="1.1" style="shape-rendering:geometricPrecision; text-rendering:geometricPrecision; image-rendering:optimizeQuality; fill-rule:evenodd; clip-rule:evenodd"
viewBox="0 0 9.62 8.45"
 xmlns:xlink="http://www.w3.org/1999/xlink"
 xmlns:xodm="http://www.corel.com/coreldraw/odm/2003">
 <defs>
  <style type="text/css">
   <![CDATA[
    .fil0 {fill:#078743;fill-rule:nonzero}
   ]]>
  </style>
 </defs>
 <g id="Capa_x0020_1">
  <metadata id="CorelCorpID_0Corel-Layer"/>
  <g id="_2808189053536">
   <path class="fil0" d="M8.42 4.41c0.1,-0.28 0.08,-0.59 -0.05,-0.86 -0.09,-0.19 -0.23,-0.35 -0.41,-0.46 0.1,-0.66 -0.27,-1.32 -0.93,-1.55l-0.19 0.53c0.36,0.13 0.58,0.48 0.57,0.84 -0.49,-0.03 -0.95,0.27 -1.12,0.75 -0.1,0.29 -0.26,0.42 -0.46,0.58 -0.22,0.18 -0.48,0.39 -0.63,0.83 -0.31,0.88 0.16,1.85 1.04,2.15 0.88,0.31 1.85,-0.16 2.15,-1.04 0.15,-0.44 0.08,-0.76 0.02,-1.04 -0.05,-0.25 -0.1,-0.45 0,-0.74zm-0.56 1.6c-0.21,0.59 -0.85,0.9 -1.44,0.69 -0.59,-0.2 -0.9,-0.85 -0.69,-1.44 0.1,-0.29 0.26,-0.42 0.46,-0.58 0.22,-0.18 0.48,-0.39 0.63,-0.83 0.1,-0.29 0.42,-0.45 0.72,-0.35 0.29,0.1 0.45,0.42 0.35,0.72 -0.15,0.44 -0.08,0.76 -0.02,1.04 0.05,0.25 0.1,0.45 -0,0.74z"/>
   <path class="fil0" d="M4.07 5.65c0.63,-0.69 0.58,-1.76 -0.11,-2.39 -0.33,-0.3 -0.77,-0.46 -1.22,-0.44 -0.34,0.02 -0.66,0.13 -0.93,0.33 -0.07,-0.12 -0.11,-0.25 -0.11,-0.39 -0.01,-0.23 0.07,-0.44 0.22,-0.61l-0.42 -0.38c-0.25,0.28 -0.38,0.64 -0.37,1.01 0.01,0.29 0.11,0.56 0.28,0.78 -0.45,0.68 -0.36,1.62 0.27,2.19 0.31,0.29 0.72,0.44 1.14,0.44 0.03,0 0.05,-0 0.08,-0 0.45,-0.02 0.87,-0.22 1.17,-0.55zm-0.42 -0.38c-0.42,0.46 -1.13,0.49 -1.59,0.07 -0.46,-0.42 -0.49,-1.13 -0.07,-1.59 0.22,-0.24 0.53,-0.37 0.83,-0.37 0.27,0 0.54,0.1 0.76,0.29 0.46,0.42 0.49,1.13 0.07,1.59z"/>
   <path class="fil0" d="M9.34 0c-0.47,0 -0.73,0.19 -0.93,0.33 -0.19,0.13 -0.32,0.23 -0.61,0.23 -0.28,0 -0.41,-0.09 -0.58,-0.23 -0.2,-0.15 -0.45,-0.34 -0.92,-0.34 -0.47,0 -0.72,0.19 -0.92,0.34 -0.17,0.13 -0.3,0.23 -0.58,0.23 -0.28,0 -0.41,-0.09 -0.58,-0.23 -0.2,-0.15 -0.45,-0.34 -0.92,-0.34 -0.47,0 -0.72,0.19 -0.92,0.34 -0.17,0.13 -0.3,0.23 -0.58,0.23 -0.28,0 -0.41,-0.09 -0.58,-0.23 -0.2,-0.15 -0.45,-0.34 -0.92,-0.34l-0.28 0 0 8.45 9.62 0 0 -8.45 -0.28 0zm-0.28 7.89l-8.49 0 0 -7.28c0.11,0.04 0.2,0.1 0.3,0.18 0.2,0.15 0.45,0.34 0.92,0.34 0.47,0 0.72,-0.19 0.92,-0.34 0.17,-0.13 0.3,-0.23 0.58,-0.23 0.28,0 0.41,0.09 0.58,0.23 0.2,0.15 0.45,0.34 0.92,0.34 0.47,0 0.72,-0.19 0.92,-0.34 0.17,-0.13 0.3,-0.23 0.58,-0.23 0.28,0 0.41,0.09 0.58,0.23 0.2,0.15 0.45,0.34 0.92,0.34 0.47,0 0.73,-0.19 0.93,-0.33 0.11,-0.08 0.21,-0.15 0.32,-0.19l0 7.28z"/>
   <polygon class="fil0" points="3.38,2.25 3.94,2.25 3.94,1.69 3.38,1.69 "/>
   <polygon class="fil0" points="5.07,3.38 5.64,3.38 5.64,2.82 5.07,2.82 "/>
   <polygon class="fil0" points="3.94,6.76 4.51,6.76 4.51,6.2 3.94,6.2 "/>
  </g>
 </g>
</svg>
