<?xml version="1.0"?>
<svg xmlns="http://www.w3.org/2000/svg" id="Capa_1" enable-background="new 0 0 512 512" height="512px" viewBox="0 0 512 512" width="512px" class=""><g><g><path d="m451 257c0-36.842-26.71-67.543-61.778-73.809 1.17-5.294 1.778-10.721 1.778-16.191 0-41.355-33.645-75-75-75-8.835 0-17.461 1.563-25.543 4.493 24.264-40.443 68.476-66.493 117.543-66.493 8.284 0 15-6.716 15-15s-6.716-15-15-15c-69.594 0-131.182 43.008-155.766 106.634-6.758-2.59-13.894-4.117-21.34-4.529-1.388-25.078-15.325-46.663-40.463-61.991-21.91-13.36-45.155-17.694-46.134-17.873-7.351-1.335-14.554 2.934-16.914 10.015-4.431 13.292-5.565 27.449-5.585 38.339-34.667.146-55.398 20.406-56.404 21.413-4.565 4.565-5.697 11.54-2.81 17.314 9.705 19.411 24.447 31.183 36.39 38.019-10.688 18.318-15.396 40.306-17.41 58.119-13.122 13.871-20.564 32.324-20.564 51.54 0 36.843 26.711 67.544 61.78 73.809-1.153 5.218-1.78 10.631-1.78 16.191 0 36.843 26.711 67.544 61.78 73.809-1.153 5.218-1.78 10.631-1.78 16.191 0 41.355 33.645 75 75 75s75-33.645 75-75c0-5.56-.627-10.973-1.78-16.191 35.069-6.265 61.78-36.966 61.78-73.809 0-5.56-.627-10.973-1.78-16.191 35.069-6.265 61.78-36.966 61.78-73.809zm-90-90c0 5.969-1.193 11.851-3.469 17.308-16.823 4.277-31.397 14.25-41.531 27.744-2.767-3.684-5.87-7.101-9.254-10.217 3.283-3.381 4.905-8.222 4.012-13.133-.178-.979-4.512-24.225-17.872-46.135-2.045-3.354-4.206-6.503-6.467-9.455 8.11-7.079 18.577-11.112 29.581-11.112 24.814 0 45 20.187 45 45zm-60 90c0 5.969-1.193 11.851-3.469 17.308-16.823 4.277-31.397 14.25-41.531 27.744-11.173-14.877-27.741-25.48-46.774-28.881.773-3.503 1.295-7.064 1.562-10.657 3.869 2.857 8.148 5.532 12.889 7.902 2.132 1.066 4.427 1.584 6.704 1.584 3.892 0 7.73-1.514 10.61-4.394.994-.994 20.762-21.237 21.384-55.147 21.805 3.108 38.625 21.893 38.625 44.541zm-204.571-150.292c8.259-4.169 21.431-8.215 38.384-4.825 4.758.952 9.691-.475 13.227-3.806 3.535-3.332 5.236-8.184 4.568-12.996-.025-.182-1.912-14.212.138-29.49 6.655 2.268 14.862 5.661 22.655 10.497 18.828 11.683 27.158 26.414 25.376 44.922l-45.932 45.933c-5.858 5.858-5.858 15.355 0 21.213 2.929 2.929 6.768 4.394 10.606 4.394s7.678-1.464 10.606-4.394l45.933-45.933c18.506-1.783 33.239 6.549 44.922 25.376 4.836 7.793 8.23 16.002 10.497 22.655-15.278 2.05-29.303.164-29.463.142-4.814-.69-9.672 1.005-13.018 4.541s-4.767 8.477-3.812 13.25c3.411 17.052-.614 30.186-4.806 38.431-14.979-12.202-19.611-28.266-19.979-29.617-1.257-5.277-5.24-9.362-10.46-10.849-5.233-1.49-10.841.076-14.688 3.925-16.793 16.793-49.711 21.759-70.942 22.657.87-21.203 5.814-54.05 22.682-70.918 3.821-3.821 5.292-9.402 3.85-14.61-1.443-5.208-5.575-9.237-10.818-10.548-.202-.05-16.963-4.646-29.526-19.95zm39.613 195.291c-.014 0-.028.001-.042.001-24.813 0-45-20.187-45-45 0-1.632.092-3.254.268-4.861 1.012.282 2.062.473 3.149.537 2.344.139 46.751 2.48 82.601-14.153 2.598 5.771 3.982 12.07 3.982 18.477 0 5.968-1.193 11.85-3.468 17.307-16.802 4.27-31.358 14.226-41.49 27.692zm60 90c-.014 0-.028.001-.042.001-24.813 0-45-20.187-45-45s20.187-45 45-45 45 20.187 45 45c0 5.968-1.193 11.85-3.468 17.307-16.802 4.27-31.358 14.226-41.49 27.692zm59.958 90.001c-24.813 0-45-20.187-45-45s20.187-45 45-45 45 20.187 45 45-20.186 45-45 45zm60-90c-.014 0-.028-.001-.042-.001-10.133-13.467-24.688-23.422-41.49-27.693-2.275-5.456-3.468-11.338-3.468-17.306 0-24.813 20.187-45 45-45s45 20.187 45 45-20.186 45-45 45zm60-90c-.014 0-.028-.001-.042-.001-10.133-13.467-24.688-23.422-41.49-27.693-2.275-5.456-3.468-11.338-3.468-17.306 0-24.813 20.187-45 45-45s45 20.187 45 45-20.186 45-45 45z" data-original="#000000" class="active-path" data-old_color="#000000" fill="#078743"/></g></g> </svg>
